<svg width="17" height="17" viewBox="0 0 17 17" fill="none" xmlns="http://www.w3.org/2000/svg">
<path d="M8.49992 1.30786C4.58565 1.30786 1.30762 4.09795 1.30762 7.62401C1.30762 9.28818 2.05949 10.781 3.24401 11.8976C3.09969 12.2711 2.89528 12.6189 2.63875 12.9274C2.29843 13.3373 1.92242 13.7166 1.51509 14.061C1.42575 14.1322 1.36085 14.2291 1.32937 14.3384C1.29788 14.4477 1.30135 14.5641 1.33929 14.6714C1.37724 14.7786 1.44779 14.8716 1.54122 14.9374C1.63464 15.0032 1.74633 15.0385 1.86087 15.0386C3.08633 15.0386 3.96766 15.0249 4.76546 14.8156C5.47916 14.6278 6.09271 14.2346 6.719 13.6826C7.28885 13.8182 7.87696 13.9402 8.49992 13.9402C12.4142 13.9402 15.6922 11.1501 15.6922 7.62401C15.6922 4.09795 12.4142 1.30786 8.49992 1.30786ZM8.49992 2.40632C11.8886 2.40632 14.5857 4.779 14.5857 7.62401C14.5857 10.469 11.8886 12.8417 8.49992 12.8417C7.89743 12.8417 7.2717 12.7385 6.70185 12.5841C6.61072 12.5614 6.51526 12.562 6.42446 12.5861C6.33367 12.6101 6.25053 12.6567 6.1829 12.7214C5.56048 13.314 5.10184 13.5903 4.48883 13.7512C4.20667 13.8254 3.66227 13.8078 3.27831 13.8375C3.35577 13.7507 3.42824 13.7045 3.50348 13.6139C3.93834 13.0867 4.33503 12.5292 4.45453 11.8976C4.47099 11.8028 4.46207 11.7053 4.42867 11.615C4.39527 11.5247 4.33856 11.4447 4.26421 11.3829C3.10514 10.4328 2.41413 9.1009 2.41413 7.62401C2.41413 4.779 5.11124 2.40632 8.49992 2.40632ZM7.44542 4.55162C7.34804 4.57332 7.25838 4.62076 7.18595 4.68893L6.35606 5.46169L7.09964 6.26796L7.75635 5.65008H9.08748L9.60643 6.23446V7.04128L8.18844 7.98486C8.11265 8.0361 8.05087 8.10524 8.00867 8.18606C7.96647 8.26688 7.94516 8.35684 7.94667 8.44786V9.54632H9.05318V8.75653L10.4712 7.81295C10.547 7.76166 10.6089 7.69243 10.6511 7.61151C10.6933 7.53059 10.7145 7.44051 10.7129 7.3494V6.02795C10.7122 5.89521 10.6631 5.76721 10.5746 5.66765L9.74475 4.74055C9.69311 4.68157 9.62938 4.6342 9.55782 4.60162C9.48627 4.56904 9.40853 4.55199 9.32981 4.55162H7.56603C7.52595 4.54726 7.4855 4.54726 7.44542 4.55162ZM7.94667 10.0956V11.194H9.05318V10.0956H7.94667Z" fill="white"/>
</svg>
