<svg width="18" height="18" viewBox="0 0 18 18" fill="none" xmlns="http://www.w3.org/2000/svg">
<g clip-path="url(#clip0)">
<path d="M13.6844 11.9075C13.0963 11.3269 12.3621 11.3269 11.7778 11.9075C11.3321 12.3495 10.8864 12.7915 10.4481 13.2409C10.3283 13.3645 10.2271 13.3908 10.0811 13.3084C9.79264 13.151 9.4855 13.0237 9.20832 12.8514C7.91608 12.0386 6.83359 10.9936 5.87471 9.81743C5.39902 9.23311 4.97576 8.60759 4.67986 7.90342C4.61993 7.76108 4.63116 7.66744 4.74728 7.55133C5.19301 7.12058 5.6275 6.67859 6.06574 6.23661C6.67628 5.62233 6.67628 4.90316 6.06199 4.28513C5.71365 3.93305 5.36531 3.58845 5.01696 3.23636C4.65738 2.87678 4.30155 2.51345 3.93822 2.15762C3.35016 1.58453 2.61601 1.58453 2.0317 2.16136C1.58222 2.60335 1.15147 3.05657 0.694505 3.49106C0.271249 3.89184 0.057748 4.38252 0.0128005 4.9556C-0.0583665 5.88827 0.170117 6.76849 0.492241 7.62624C1.15147 9.40167 2.1553 10.9786 3.37263 12.4244C5.01696 14.3796 6.97967 15.9266 9.27574 17.0428C10.3095 17.5447 11.3808 17.9305 12.5457 17.9941C13.3472 18.0391 14.0439 17.8368 14.602 17.2113C14.9841 16.7843 15.4148 16.3948 15.8194 15.9865C16.4187 15.3797 16.4224 14.6456 15.8269 14.0463C15.1152 13.3308 14.3998 12.6192 13.6844 11.9075Z" fill="#7C275E"/>
<path d="M12.969 8.92223L14.3511 8.68626C14.1338 7.41649 13.5345 6.26658 12.6244 5.35265C11.6617 4.39002 10.4444 3.78323 9.10346 3.59595L8.90869 4.98558C9.94623 5.13166 10.8901 5.59986 11.6355 6.34524C12.3397 7.04942 12.8004 7.94088 12.969 8.92223Z" fill="#7C275E"/>
<path d="M15.1305 2.9141C13.5348 1.31846 11.516 0.310887 9.2873 0L9.09253 1.38963C11.0178 1.65931 12.7632 2.53205 14.1416 3.90669C15.4489 5.21392 16.3066 6.86574 16.6175 8.68237L17.9996 8.4464C17.6363 6.34135 16.6437 4.43108 15.1305 2.9141Z" fill="#7C275E"/>
</g>
<defs>
<clipPath id="clip0">
<rect width="18" height="18" fill="white"/>
</clipPath>
</defs>
</svg>
