<svg width="40" height="40" viewBox="0 0 40 40" fill="none" xmlns="http://www.w3.org/2000/svg">
<path d="M31.4699 8.28125C31.4699 5.56281 29.691 1.25 24.9176 1.25C22.9563 1.25 21.3066 2.17461 19.9996 4.00227C18.6927 2.17461 17.0428 1.25 15.0816 1.25C10.3081 1.25 8.5293 5.56281 8.5293 8.28125C8.5293 12.9682 12.1873 15.9 17.1845 20.1732C17.9188 20.801 18.6781 21.4503 19.4877 22.1527C19.6345 22.2801 19.817 22.3438 19.9996 22.3438C20.1822 22.3438 20.3647 22.2801 20.5116 22.1527C21.3211 21.4503 22.0804 20.801 22.8147 20.1732C28.0464 15.6995 31.4699 12.8691 31.4699 8.28125ZM19.9996 20.5294C19.3753 19.9906 18.7799 19.4815 18.2 18.9855C12.9717 14.515 10.0918 12.0523 10.0918 8.28125C10.0918 5.7232 11.7653 2.8125 15.0816 2.8125C16.8123 2.8125 18.1968 3.80625 19.3141 5.85047C19.4511 6.10109 19.714 6.25703 19.9996 6.25703C20.2852 6.25703 20.5481 6.10109 20.6851 5.85047C21.8024 3.80625 23.1869 2.8125 24.9176 2.8125C28.1876 2.8125 29.9074 5.68 29.9074 8.28125C29.9074 12.0523 27.0275 14.515 21.7992 18.9856C21.2193 19.4815 20.6239 19.9906 19.9996 20.5294Z" fill="#7C275E"/>
<path d="M5.61391 31.8839L9.375 33.7641V37.9688C9.375 38.4002 9.72484 38.75 10.1562 38.75H18.4375C18.8689 38.75 19.2188 38.4002 19.2188 37.9688V27.7695C19.2188 25.3759 17.4232 23.391 15.048 23.1529L14.9841 23.146C13.6094 23.0082 11.1752 22.0679 10.214 21.1068L8.45945 19.353C7.86906 18.7627 7.08445 18.4375 6.25 18.4375V12.1875C6.25 10.4644 4.84812 9.0625 3.125 9.0625C1.40188 9.0625 0 10.4644 0 12.1875V22.8C0 26.6448 2.17172 30.1624 5.61391 31.8839ZM1.5625 12.1875C1.5625 11.3259 2.26344 10.625 3.125 10.625C3.98656 10.625 4.6875 11.3259 4.6875 12.1875V18.8563C3.73469 19.4073 3.125 20.4345 3.125 21.5625C3.125 22.397 3.45016 23.1816 4.04055 23.7719L8.04133 27.7734C8.34633 28.0786 8.84102 28.0786 9.14617 27.7735C9.45125 27.4685 9.45133 26.9738 9.14625 26.6687L5.14547 22.667C4.85008 22.3718 4.6875 21.9795 4.6875 21.5625C4.6875 20.9012 5.10602 20.3091 5.72906 20.089C5.72914 20.089 5.7293 20.0889 5.72937 20.0888C5.72953 20.0887 5.72977 20.0888 5.72992 20.0887C6.26883 19.8974 6.90805 20.0113 7.35469 20.458L9.10922 22.2119C10.9206 24.0233 14.8782 24.7048 14.8861 24.707C16.4653 24.8653 17.6562 26.182 17.6562 27.7695V37.1875H10.9374V33.2812C10.9374 32.9853 10.7702 32.7148 10.5055 32.5825L6.31266 30.4864C3.38273 29.021 1.5625 26.0758 1.5625 22.8V12.1875Z" fill="#A1A1A1"/>
<path d="M35.8594 30.7812C36.2908 30.7812 36.6406 30.4315 36.6406 30C36.6406 29.5685 36.2908 29.2188 35.8594 29.2188C35.4279 29.2188 35.0781 29.5685 35.0781 30C35.0781 30.4315 35.4279 30.7812 35.8594 30.7812Z" fill="#7C275E"/>
<path d="M36.875 9.0625C35.1519 9.0625 33.75 10.4644 33.75 12.1875V18.4375C32.9155 18.4375 32.1309 18.7627 31.5407 19.353L29.7859 21.107C28.8248 22.068 26.3906 23.0083 25.0098 23.1466L24.958 23.1523C22.5768 23.391 20.7812 25.376 20.7812 27.7695V37.9688C20.7812 38.4002 21.1311 38.75 21.5625 38.75H29.8438C30.2752 38.75 30.625 38.4002 30.625 37.9688V33.7641L33.182 32.4859C33.5679 32.2929 33.7244 31.8237 33.5315 31.4377C33.3385 31.0519 32.8692 30.8952 32.4834 31.0883L29.4944 32.5825C29.2298 32.7148 29.0625 32.9853 29.0625 33.2812V37.1875H22.3438V27.7695C22.3438 26.182 23.5346 24.8653 25.1199 24.7064L25.1716 24.7008C26.8662 24.5309 29.6721 23.4304 30.8905 22.212L32.6454 20.458C33.0933 20.0099 33.7338 19.8984 34.27 20.0887C34.2702 20.0888 34.2704 20.0887 34.2705 20.0888C34.2706 20.0888 34.2708 20.0889 34.2709 20.089C34.894 20.3091 35.3125 20.9012 35.3125 21.5625C35.3125 21.9795 35.1499 22.3718 34.8546 22.6672L30.8538 26.6687C30.5487 26.9738 30.5488 27.4685 30.8539 27.7736C31.1588 28.0787 31.6537 28.0787 31.9587 27.7735L35.9595 23.772C36.5498 23.1816 36.875 22.397 36.875 21.5625C36.875 20.4345 36.2653 19.4073 35.3125 18.8563V12.1875C35.3125 11.3259 36.0134 10.625 36.875 10.625C37.7366 10.625 38.4375 11.3259 38.4375 12.1875V22.8C38.4375 24.2294 38.0768 25.6484 37.3943 26.9038C37.1881 27.2829 37.3284 27.7572 37.7075 27.9633C38.0865 28.1694 38.561 28.0293 38.767 27.6501C39.5737 26.1664 40 24.4893 40 22.8V12.1875C40 10.4644 38.5981 9.0625 36.875 9.0625Z" fill="#A1A1A1"/>
</svg>
