<svg width="20" height="20" viewBox="0 0 20 20" fill="none" xmlns="http://www.w3.org/2000/svg">
<path fill-rule="evenodd" clip-rule="evenodd" d="M14.6254 8.31232C14.6254 11.7985 11.7993 14.6246 8.31306 14.6246C4.82686 14.6246 2.00073 11.7985 2.00073 8.31232C2.00073 4.82612 4.82686 2 8.31306 2C11.7993 2 14.6254 4.82612 14.6254 8.31232ZM13.4411 14.8548C12.0285 15.9635 10.248 16.6246 8.31306 16.6246C3.72229 16.6246 0.000732422 12.9031 0.000732422 8.31232C0.000732422 3.72155 3.72229 0 8.31306 0C12.9038 0 16.6254 3.72155 16.6254 8.31232C16.6254 10.2474 15.9642 12.028 14.8553 13.4406L19.826 18.4113L18.4118 19.8255L13.4411 14.8548Z" fill="#7C275E"/>
</svg>
