<svg width="20" height="20" viewBox="0 0 20 20" fill="none" xmlns="http://www.w3.org/2000/svg">
<path fill-rule="evenodd" clip-rule="evenodd" d="M10.0501 0H5.89592C5.06251 0 4.32805 0.20023 3.7748 0.351062C3.66239 0.381706 3.55747 0.41031 3.46072 0.434783C2.74448 0.724638 2.17149 1.01449 1.74174 1.5942C1.16875 2.17391 0.88226 2.75362 0.595766 3.33333L0.595763 3.33333C0.309268 3.91304 0.166016 4.78261 0.166016 5.7971V10V14.2029C0.166016 15.0461 0.363926 15.7891 0.51301 16.3489C0.5433 16.4626 0.571574 16.5688 0.595763 16.6667C0.882258 17.3913 1.16875 17.971 1.74174 18.4058C2.31473 18.8406 2.88772 19.2754 3.46072 19.5652C4.03371 19.8551 4.89319 20 5.89592 20H10.0501H14.2043C15.0377 20 15.7722 19.7998 16.3254 19.6489C16.4378 19.6183 16.5427 19.5897 16.6395 19.5652C17.3557 19.2754 17.9287 18.9855 18.3585 18.4058C18.7882 17.8261 19.218 17.2464 19.5044 16.6667C19.7909 16.087 19.9342 15.2174 19.9342 14.2029V10V5.7971C19.9342 4.95392 19.7363 4.21085 19.5872 3.65111C19.5569 3.53738 19.5286 3.43123 19.5044 3.33333C19.218 2.6087 18.9315 2.02899 18.3585 1.5942C17.7855 1.0145 17.2125 0.724645 16.6395 0.434794L16.6395 0.434783C16.0665 0.144928 15.207 0 14.2043 0H10.0501ZM16.6366 4.78247C16.6366 5.50711 16.0637 5.94189 15.4907 5.94189C14.9177 5.94189 14.3447 5.36218 14.3447 4.78247C14.3447 4.05783 14.9177 3.62305 15.4907 3.62305C16.0637 3.62305 16.6366 4.05783 16.6366 4.78247ZM10.0487 13.478C8.1865 13.478 6.75402 12.0287 6.75402 10.1446C6.75402 8.26058 8.1865 6.81131 10.0487 6.81131C11.9109 6.81131 13.3434 8.26058 13.3434 10.1446C13.3434 12.0287 11.9109 13.478 10.0487 13.478ZM10.0487 4.92725C7.18377 4.92725 4.89181 7.24609 4.89181 10.1446C4.89181 13.0432 7.18377 15.362 10.0487 15.362C12.9137 15.362 15.2056 13.0432 15.2056 10.1446C15.2056 7.24609 12.9137 4.92725 10.0487 4.92725Z" fill="#898A8D"/>
</svg>
