<svg width="41" height="41" viewBox="0 0 41 41" fill="none" xmlns="http://www.w3.org/2000/svg">
<g clip-path="url(#clip0)">
<path d="M10.167 30.4808C10.167 31.6321 11.1037 32.5687 12.255 32.5687C13.4062 32.5687 14.3429 31.6321 14.3429 30.4808C14.3429 29.3294 13.4062 28.3928 12.255 28.3928C11.1037 28.3927 10.167 29.3294 10.167 30.4808ZM13.1418 30.4808C13.1418 30.9697 12.744 31.3676 12.255 31.3676C11.7661 31.3676 11.3682 30.9697 11.3682 30.4808C11.3682 29.9918 11.766 29.5939 12.255 29.5939C12.7441 29.5939 13.1418 29.9917 13.1418 30.4808Z" fill="#7C275E"/>
<path d="M36.4269 17.5665C37.7594 16.8071 37.761 14.8865 36.4269 14.1262C36.131 13.9576 35.963 13.6053 36.0619 13.2421C36.4665 11.7645 35.1123 10.4039 33.6276 10.8102C33.2844 10.9043 32.9216 10.754 32.7454 10.4448C31.9861 9.11227 30.0654 9.11075 29.3052 10.4448C29.129 10.754 28.7663 10.9043 28.4211 10.8098C26.9799 10.4152 25.5823 11.7121 25.9892 13.2441C26.0832 13.5874 25.9329 13.95 25.6238 14.1263C24.2913 14.8857 24.2897 16.8063 25.6238 17.5665C25.9329 17.7428 26.0832 18.1054 25.9888 18.4506C25.5841 19.9281 26.9385 21.2889 28.423 20.8825C28.7663 20.7885 29.1291 20.9389 29.3052 21.248C30.0646 22.5806 31.9852 22.582 32.7454 21.248C32.9216 20.9388 33.2842 20.7885 33.6295 20.883C35.1052 21.2871 36.4693 19.9347 36.0614 18.4487C35.9674 18.1054 36.1178 17.7427 36.4269 17.5665ZM35.8323 16.5229C35.0593 16.9635 34.6588 17.8767 34.9034 18.7679C35.0623 19.3483 34.531 19.8845 33.9449 19.724C33.0721 19.485 32.1499 19.8672 31.7019 20.6533C31.4032 21.1775 30.6478 21.1779 30.3488 20.6533C29.9021 19.8692 28.9809 19.4844 28.1039 19.7245C27.5237 19.8834 26.9872 19.3522 27.1478 18.7659C27.3868 17.8933 27.0045 16.9709 26.2185 16.5229C25.6944 16.2243 25.6938 15.469 26.2185 15.1699C27.0046 14.7219 27.3868 13.7995 27.1498 12.9344C26.9859 12.3172 27.5384 11.8135 28.1059 11.9689C28.9784 12.2077 29.9008 11.8256 30.3488 11.0396C30.6475 10.5154 31.4029 10.515 31.7018 11.0396C32.1499 11.8257 33.0723 12.2077 33.9468 11.9684C34.5232 11.8103 35.0641 12.3359 34.9029 12.927C34.664 13.7997 35.0462 14.7221 35.8322 15.17C36.3563 15.4686 36.3569 16.2239 35.8323 16.5229Z" fill="#7C275E"/>
<path d="M38.6694 9.89318C38.4655 9.63164 38.0881 9.58488 37.8265 9.78892C37.565 9.99288 37.5183 10.3703 37.7223 10.6318C38.8936 12.1339 39.5128 13.937 39.5128 15.8463C39.5128 20.5266 35.7051 24.3342 31.0248 24.3342C26.4489 24.3342 22.6941 20.6778 22.5422 16.1331C24.2837 14.3902 24.2204 14.4619 24.3175 14.3431C24.338 14.3067 24.7677 13.8487 24.7677 13.0768C24.7677 11.9977 23.9881 11.5161 23.8431 11.3213C25.3932 8.86569 28.1047 7.35838 31.0249 7.35838C32.8803 7.35838 34.6427 7.94624 36.1215 9.05852C36.3866 9.25792 36.7631 9.20459 36.9625 8.93953C37.1619 8.67447 37.1085 8.29794 36.8435 8.09855C35.1549 6.82859 33.1428 6.15729 31.0249 6.15729C27.7825 6.15729 24.7664 7.78608 22.976 10.4543L22.5544 10.0327C21.9202 9.39846 20.9635 9.27866 20.2073 9.67296L12.7522 2.21785C11.6439 1.10973 9.92169 0.982084 8.67119 1.83355L7.489 0.651362C6.62023 -0.217406 5.21414 -0.217486 4.34529 0.651362L2.75678 2.23979C1.88802 3.10856 1.88794 4.51473 2.75678 5.3835L3.9385 6.56521C3.21723 7.62032 3.19865 9.00695 3.86979 10.0768C1.55553 12.6863 0.286133 16.0144 0.286133 19.5057C0.286133 21.4344 0.668906 23.3076 1.4238 25.0733C1.55417 25.3782 1.90699 25.5196 2.21209 25.3893C2.51711 25.259 2.65861 24.906 2.52824 24.601C1.83749 22.9854 1.4873 21.2711 1.4873 19.5056C1.4873 16.3614 2.61176 13.3608 4.66593 10.9892L7.79426 14.1176C6.56554 15.6461 5.89504 17.5381 5.89504 19.5056C5.89504 22.2665 7.23275 24.8514 9.44186 26.4612C8.40565 27.2691 8.16998 28.0333 6.83388 30.0118C5.59347 29.1059 4.53203 27.9985 3.67288 26.713C3.48862 26.4372 3.11569 26.3631 2.83982 26.5474C2.56403 26.7318 2.48988 27.1047 2.67422 27.3805C3.62571 28.8042 4.80542 30.0271 6.18509 31.0241L4.15335 34.1942C2.3238 34.3656 0.886959 35.9094 0.886959 37.7831V39.1128C0.887039 40.1533 1.73346 40.9998 2.77392 40.9998H30.2985C31.6173 40.9998 32.6903 39.9268 32.6903 38.6079C32.6903 36.1651 30.7029 34.1778 28.2602 34.1778H17.3892V32.0077H26.3058C27.3003 32.0077 28.1094 31.1986 28.1094 30.2041C28.1094 28.1688 26.4536 26.5128 24.4182 26.5128H15.5461C14.702 25.8338 13.6307 25.4261 12.4655 25.4261C11.8126 25.4261 11.1802 25.5537 10.5974 25.792C8.43048 24.4428 7.09622 22.0618 7.09622 19.5057C7.09622 17.8573 7.64483 16.2708 8.65037 14.9737L11.7781 18.1014C11.3861 18.8495 11.4962 19.807 12.1382 20.4489L13.764 22.0747C14.5479 22.8586 15.8166 22.8587 16.6007 22.0747L21.4358 17.2396C21.7318 19.3064 22.6837 21.2138 24.1889 22.7125C26.0171 24.5329 28.4448 25.5355 31.0249 25.5355C36.3675 25.5355 40.7141 21.1889 40.7141 15.8463C40.714 13.667 40.007 11.6084 38.6694 9.89318ZM31.4891 38.6079C31.4891 39.2645 30.955 39.7986 30.2985 39.7986H2.77392C2.39579 39.7986 2.08821 39.491 2.08821 39.1129V37.7832C2.08821 36.4575 3.1667 35.3789 4.4924 35.3789H28.2602C30.0407 35.3789 31.4891 36.8275 31.4891 38.6079ZM24.4182 27.714C25.7913 27.714 26.9083 28.8311 26.9083 30.2041C26.9083 30.5363 26.638 30.8065 26.3058 30.8065H17.3893C17.3591 30.6008 17.5714 29.2083 16.623 27.714H24.4182ZM16.1874 30.3232C16.1875 30.3322 16.1881 30.341 16.1881 30.3499V34.1778H5.59067C9.60322 27.9177 9.39846 28.2119 9.63966 27.9275C10.3311 27.1225 11.3448 26.6273 12.4655 26.6273C14.4962 26.6273 16.1725 28.2669 16.1874 30.3232ZM11.9027 3.06724L19.2929 10.4573L14.8061 14.9441L12.5627 17.1874C4.61227 9.23686 5.17354 9.80085 5.09522 9.71516C4.38797 8.92591 4.41112 7.71153 5.17266 6.95007L9.05549 3.06724C9.84033 2.28239 11.1177 2.28207 11.9027 3.06724ZM3.60609 3.0891L5.19452 1.50067C5.59291 1.10228 6.24114 1.1022 6.63961 1.50067L7.78144 2.6425L4.74801 5.67602L3.60609 4.53419C3.2077 4.1358 3.2077 3.48749 3.60609 3.0891ZM15.7513 21.2253C15.437 21.5397 14.9278 21.5398 14.6132 21.2253L12.9874 19.5994C12.6729 19.285 12.6729 18.776 12.9874 18.4614L15.5139 15.9349L20.567 10.8817C20.8815 10.5675 21.3904 10.5674 21.7049 10.8819L23.3307 12.5077C23.637 12.815 23.6517 13.3228 23.3307 13.6458L15.7513 21.2253Z" fill="#A1A1A1"/>
<path d="M21.9983 16.5001C22.9987 24.9995 32.4983 26.9995 37.0006 22.4996C40.4984 19.9996 41.4986 12.9997 36.9998 8.99973C33.1257 5.25973 25.9983 5.99951 23.4996 11.0002" stroke="#7C275E"/>
</g>
<defs>
<clipPath id="clip0">
<rect width="41" height="41" fill="white"/>
</clipPath>
</defs>
</svg>
