<svg width="41" height="41" viewBox="0 0 41 41" fill="none" xmlns="http://www.w3.org/2000/svg">
<g clip-path="url(#clip0)">
<path d="M5.60776 23.2667C7.04424 23.2667 8.48097 22.7204 9.57471 21.628L21.5086 9.69364C23.693 7.50648 23.693 3.94777 21.5086 1.76061C21.5086 1.76053 21.5084 1.76037 21.5083 1.76029C20.4524 0.704348 19.0436 0.122803 17.5415 0.122803C16.0395 0.122803 14.6307 0.704348 13.5747 1.76029L1.64112 13.6942C-0.546118 15.8815 -0.546118 19.4406 1.64144 21.6283C2.73503 22.7206 4.17127 23.2667 5.60776 23.2667ZM14.7072 2.89279C15.4606 2.13939 16.4673 1.7245 17.5415 1.7245C18.6157 1.7245 19.6222 2.13931 20.3754 2.89247C21.9366 4.45556 21.9366 6.99885 20.3757 8.56162L14.9752 13.9623L9.3066 8.29359L14.7072 2.89279ZM2.77362 14.8267L8.17418 9.42601L13.8428 15.0948L8.44253 20.4951C6.87944 22.0563 4.33624 22.0562 2.77362 20.4955C1.21085 18.9326 1.21077 16.3896 2.77362 14.8267Z" fill="#A1A1A1"/>
<path d="M38.503 30.203L25.532 19.4063C24.3848 18.4513 22.929 18.0007 21.4334 18.1372C19.9369 18.2739 18.587 18.9814 17.6329 20.1288C16.677 21.2757 16.2258 22.7313 16.3626 24.2274C16.4994 25.7239 17.2072 27.074 18.3554 28.0287L31.3266 38.8277C32.3388 39.6702 33.5912 40.12 34.8998 40.12C35.0742 40.12 35.2496 40.112 35.4254 40.0959C36.9215 39.959 38.2712 39.2518 39.226 38.1047C39.226 38.1046 39.2261 38.1044 39.2262 38.1044C41.2037 35.726 40.8794 32.1815 38.503 30.203ZM19.3798 26.7975C18.5605 26.1163 18.0554 25.1517 17.9576 24.0816C17.8598 23.0119 18.1814 21.9723 18.8639 21.1535C19.5447 20.3346 20.509 19.8299 21.579 19.7322C21.7047 19.7207 21.83 19.7151 21.9546 19.7151C22.8902 19.7151 23.785 20.0361 24.5072 20.6373L30.3773 25.5234L25.2496 31.6845L19.3798 26.7975ZM37.9946 37.0805C37.3136 37.8986 36.3493 38.4031 35.2794 38.501C34.2094 38.5988 33.1694 38.2778 32.3513 37.5968L26.4805 32.7092L31.6084 26.548L37.4783 31.4339C39.1763 32.8477 39.408 35.3807 37.9946 37.0805Z" fill="#A1A1A1"/>
<path d="M8.07083 24.78C5.92075 24.78 3.89943 25.6174 2.3791 27.1377C-0.758855 30.2757 -0.758855 35.3817 2.3791 38.5197C3.89943 40.0401 5.92083 40.8774 8.07083 40.8774C10.221 40.8774 12.2418 40.04 13.7609 38.5197C16.8988 35.3817 16.8988 30.2757 13.761 27.1379C12.2418 25.6174 10.221 24.78 8.07083 24.78ZM8.07083 39.2759C6.34862 39.2759 4.72947 38.6052 3.5116 37.3874C1.65077 35.5265 1.16909 32.8022 2.06351 30.4926L10.4106 38.8379C9.67453 39.1243 8.88461 39.2759 8.07083 39.2759ZM12.6281 37.3874C12.391 37.6246 12.1384 37.8405 11.8731 38.0352L2.86319 29.0273C3.05675 28.7625 3.27264 28.5092 3.5116 28.2703C3.7492 28.0327 4.0025 27.8166 4.26837 27.6216L13.2775 36.629C13.0838 36.8942 12.8675 37.1481 12.6281 37.3874ZM14.077 35.1634L5.73136 26.8194C6.46746 26.5331 7.2573 26.3816 8.07083 26.3816C9.79289 26.3816 11.4114 27.0523 12.6284 28.2702C14.4887 30.1306 14.9705 32.8541 14.077 35.1634Z" fill="#7C275E"/>
<path d="M32.9568 19.8493C35.1069 19.8493 37.1277 19.012 38.6469 17.4916C41.7848 14.3536 41.7848 9.24765 38.6471 6.10985C37.1278 4.58936 35.107 3.75195 32.9568 3.75195C30.8067 3.75195 28.7854 4.58928 27.2651 6.10961C24.1271 9.24765 24.1271 14.3536 27.2651 17.4916C28.7853 19.012 30.8067 19.8493 32.9568 19.8493ZM38.963 9.46595C39.8566 11.7752 39.3747 14.4986 37.5144 16.359C37.5143 16.3591 37.5142 16.3592 37.5141 16.3592C36.2975 17.5769 34.679 18.2476 32.9568 18.2476C32.1433 18.2476 31.3534 18.0962 30.6174 17.8099L38.963 9.46595ZM28.3976 7.24203C29.6155 6.02416 31.2345 5.35349 32.9568 5.35349C33.7704 5.35349 34.5603 5.50492 35.2962 5.79137L33.6647 7.42149C33.3518 7.73404 33.3515 8.24111 33.6642 8.55399C33.8206 8.71055 34.0257 8.78878 34.2307 8.78878C34.4355 8.78878 34.6403 8.71071 34.7967 8.55447L36.759 6.59401C37.0244 6.78885 37.2773 7.00475 37.5144 7.24211C37.7537 7.48147 37.9699 7.73524 38.1637 8.00047L29.1544 17.0078C28.8885 16.8128 28.6352 16.5967 28.3976 16.3591C28.1587 16.1202 27.9428 15.8669 27.7493 15.6023L29.7117 13.6417C30.0246 13.3292 30.0248 12.8221 29.7122 12.5092C29.3996 12.1964 28.8926 12.1961 28.5797 12.5088L26.9497 14.1373C26.0551 11.8276 26.5367 9.10302 28.3976 7.24203Z" fill="#7C275E"/>
<path d="M31.3295 11.2495C31.4439 11.3067 31.5655 11.3338 31.6854 11.3338C31.9801 11.3338 32.2644 11.1703 32.405 10.8891C32.6028 10.4935 32.4425 10.0125 32.0469 9.81471C31.6513 9.61691 31.1703 9.77723 30.9725 10.1728L30.9702 10.1774C30.7724 10.573 30.9339 11.0518 31.3295 11.2495Z" fill="#7C275E"/>
</g>
<defs>
<clipPath id="clip0">
<rect width="41" height="41" fill="white"/>
</clipPath>
</defs>
</svg>
