<svg width="24" height="24" viewBox="0 0 24 24" fill="none" xmlns="http://www.w3.org/2000/svg">
<g clip-path="url(#clip0)">
<path d="M23.0993 9.29419C23.0993 7.76616 22.5043 6.32963 21.4239 5.24925L17.8501 1.67541C16.7697 0.594984 15.3332 0 13.8052 0H13.8052H7.35825C7.16405 0 7.00669 0.157406 7.00669 0.351562C7.00669 0.545719 7.16405 0.703125 7.35825 0.703125H13.0145C14.4829 0.703125 15.6775 1.89778 15.6775 3.36619V5.20102C15.6775 6.42558 16.6738 7.42181 17.8983 7.42181H19.7332C21.1986 7.42181 22.3911 8.61159 22.396 10.0759V21.7791C22.396 22.616 21.7154 23.2969 20.8787 23.2969H5.52244C4.82991 23.2969 4.23221 22.8356 4.05586 22.1703L4.04082 20.0017H15.443C16.9907 20.0017 18.2499 18.7425 18.2499 17.1948V16.4348C18.2499 16.2406 18.0925 16.0832 17.8983 16.0832C17.7041 16.0832 17.5468 16.2406 17.5468 16.4348V17.1948C17.5468 18.3548 16.603 19.2986 15.443 19.2986H2.84044C2.15761 19.2986 1.60205 18.743 1.60205 18.0602V10.4509C1.93838 10.7302 2.3701 10.8984 2.84044 10.8984H15.443C16.603 10.8984 17.5467 11.8421 17.5467 13.0021V15.0285C17.5467 15.2227 17.7041 15.3801 17.8983 15.3801C18.0925 15.3801 18.2499 15.2227 18.2499 15.0285V13.0021C18.2499 11.4544 16.9907 10.1953 15.443 10.1953H4.005V2.22094C4.005 1.38403 4.68568 0.703125 5.52235 0.703125H5.95224C6.14644 0.703125 6.3038 0.545719 6.3038 0.351562C6.3038 0.157406 6.1464 0 5.95224 0H5.5224C4.29802 0 3.30193 0.996328 3.30193 2.22094V7.01536H2.84044C1.76986 7.01536 0.898926 7.88634 0.898926 8.95687V18.0602C0.898926 19.1308 1.76986 20.0017 2.84044 20.0017H3.3376L3.35297 22.2174C3.35316 22.2442 3.35639 22.2707 3.36258 22.2967C3.60221 23.2996 4.49035 24 5.5224 24H20.8786C22.103 24 23.0991 23.0037 23.0991 21.7791L23.0993 9.29419ZM2.84044 7.71848H3.30193V10.1953H2.84044C2.15761 10.1953 1.60205 9.6397 1.60205 8.95687C1.60205 8.27405 2.15757 7.71848 2.84044 7.71848ZM19.7331 6.71869H17.8983C17.0614 6.71869 16.3806 6.03788 16.3806 5.20102V3.36619C16.3806 2.41612 15.9851 1.55686 15.35 0.944203C16.0972 1.18495 16.7818 1.60144 17.3529 2.17256L20.9267 5.74641C21.4979 6.31753 21.9144 7.00209 22.1551 7.74933C21.5424 7.11422 20.6831 6.71869 19.7331 6.71869Z" fill="white"/>
<path d="M15.0576 13.2081C15.2518 13.2081 15.4092 13.0507 15.4092 12.8566C15.4092 12.6624 15.2518 12.505 15.0576 12.505H13.2451C13.0509 12.505 12.8936 12.6624 12.8936 12.8566V17.3287C12.8936 17.5228 13.0509 17.6802 13.2451 17.6802C13.4393 17.6802 13.5967 17.5228 13.5967 17.3287V15.4018H14.9137C15.1079 15.4018 15.2652 15.2444 15.2652 15.0503C15.2652 14.8561 15.1079 14.6987 14.9137 14.6987H13.5967V13.2081H15.0576Z" fill="white"/>
<path d="M8.6355 12.505C8.54217 12.505 8.45264 12.5421 8.38664 12.6082C8.32073 12.6743 8.28375 12.7639 8.28394 12.8573V12.8611V12.8613V17.2561C8.28394 17.2834 8.28736 17.31 8.29331 17.3355C8.29509 17.4267 8.33208 17.5138 8.39686 17.5782C8.46272 17.6436 8.55178 17.6802 8.64455 17.6802H8.64586C8.68406 17.6801 9.58584 17.6766 9.94528 17.6704C10.5692 17.6595 11.1247 17.3768 11.5095 16.8746C11.8642 16.4116 12.0596 15.7788 12.0596 15.0926C12.0596 13.5449 11.1925 12.5051 9.90206 12.5051H8.6355V12.505ZM11.3565 15.0926C11.3565 16.1818 10.7711 16.9527 9.933 16.9673C9.7192 16.9711 9.29789 16.9738 8.99489 16.9755C8.99315 16.4625 8.99025 15.5235 8.99025 15.0877C8.99025 14.723 8.98861 13.7396 8.98762 13.2082H9.90201C10.6052 13.2081 11.3565 13.7032 11.3565 15.0926Z" fill="white"/>
<path d="M4.80766 12.4721C4.71424 12.4721 4.62466 12.5093 4.55866 12.5755C4.49313 12.6412 4.45638 12.7301 4.45615 12.8229C4.45615 12.8232 4.45605 12.8234 4.45605 12.8237V17.3287C4.45605 17.5229 4.61341 17.6803 4.80762 17.6803C5.00182 17.6803 5.15918 17.5229 5.15918 17.3287V15.7215C5.45093 15.7199 5.8556 15.7179 6.06204 15.7179C6.97061 15.7179 7.70979 14.9898 7.70979 14.095C7.70979 13.2001 6.97057 12.472 6.06204 12.472H4.80766V12.4721ZM7.00671 14.095C7.00671 14.5936 6.5741 15.0148 6.06208 15.0148C5.85677 15.0148 5.45773 15.0167 5.16598 15.0183C5.16438 14.7188 5.16237 14.3045 5.16237 14.095C5.16237 13.9183 5.16124 13.4868 5.1603 13.1752H6.06208C6.5741 13.1752 7.00671 13.5964 7.00671 14.095Z" fill="white"/>
</g>
<defs>
<clipPath id="clip0">
<rect width="24" height="24" rx="4" fill="white"/>
</clipPath>
</defs>
</svg>
