<svg width="41" height="41" viewBox="0 0 41 41" fill="none" xmlns="http://www.w3.org/2000/svg">
<path d="M28.2479 31.0746L29.3171 33.4609C29.3799 33.5935 29.4921 33.6962 29.6298 33.747C29.7674 33.7978 29.9195 33.7927 30.0534 33.7327C30.1873 33.6726 30.2923 33.5626 30.346 33.426C30.3997 33.2895 30.3977 33.1373 30.3405 33.0022L29.271 30.6162C29.2412 30.5485 29.1983 30.4874 29.1449 30.4363C29.0914 30.3853 29.0283 30.3453 28.9593 30.3187C28.8903 30.2921 28.8167 30.2795 28.7428 30.2815C28.6689 30.2834 28.5961 30.3 28.5286 30.3302C28.4611 30.3605 28.4003 30.4038 28.3496 30.4576C28.299 30.5115 28.2594 30.5748 28.2333 30.644C28.2072 30.7132 28.1951 30.7868 28.1976 30.8607C28.2001 30.9346 28.2172 31.0073 28.2479 31.0746Z" fill="#A1A1A1"/>
<path d="M34.9908 19.7487C35.8038 18.9326 36.6443 18.0889 36.6443 16.979C36.6443 15.8691 35.8038 15.0251 34.9908 14.2096C34.4738 13.6907 33.9395 13.1525 33.7803 12.6637C33.6093 12.1371 33.7272 11.3636 33.8412 10.6137C34.0113 9.49905 34.1868 8.34625 33.5609 7.48621C32.9286 6.61752 31.7707 6.42918 30.6512 6.2466C29.91 6.12584 29.1438 6.00092 28.7053 5.68189C28.2758 5.36927 27.925 4.6854 27.5861 4.02395C27.0656 3.00856 26.5256 1.95698 25.4894 1.62065C24.4964 1.29809 23.464 1.81572 22.4666 2.31701C21.7805 2.66199 21.071 3.01849 20.4992 3.01849C19.9275 3.01849 19.218 2.66199 18.5319 2.31701C17.5344 1.81604 16.5027 1.29777 15.5091 1.62065C14.4729 1.95698 13.9338 3.00856 13.4123 4.02523C13.0734 4.687 12.723 5.37055 12.2935 5.68349C11.8549 6.0038 11.0884 6.12745 10.3472 6.24788C9.22774 6.43046 8.06981 6.6188 7.43752 7.48781C6.81195 8.34785 6.98748 9.50034 7.15724 10.615C7.27127 11.3633 7.38915 12.1368 7.2181 12.665C7.05795 13.1554 6.52463 13.6919 6.00764 14.2108C5.19469 15.0254 4.35547 15.8691 4.35547 16.979C4.35547 18.0889 5.19597 18.9329 6.00892 19.7487C6.52591 20.2673 7.06019 20.8058 7.21938 21.2946C7.39043 21.8212 7.27256 22.5947 7.15852 23.3426C6.98844 24.4576 6.81291 25.6105 7.4388 26.4705C8.0711 27.3395 9.22871 27.5275 10.3485 27.7101C10.5279 27.7392 10.7085 27.7687 10.886 27.8014L7.23732 35.9373C7.19412 36.0343 7.17934 36.1415 7.1947 36.2466C7.21006 36.3516 7.25493 36.4501 7.32408 36.5306C7.39324 36.6112 7.48385 36.6704 7.58536 36.7015C7.68687 36.7325 7.79511 36.7341 7.89749 36.7061L11.6573 35.6721L13.387 39.1654C13.4332 39.2591 13.5048 39.338 13.5936 39.3932C13.6823 39.4483 13.7848 39.4775 13.8893 39.4774H13.9001C14.0064 39.4754 14.1099 39.4431 14.1985 39.3845C14.2872 39.3258 14.3573 39.2432 14.4008 39.1462L17.5591 32.1013C17.8855 31.9648 18.2112 31.8018 18.5331 31.64C19.218 31.2963 19.9275 30.9398 20.4992 30.9398C21.071 30.9398 21.7805 31.2963 22.4666 31.641C22.7885 31.8027 23.1136 31.9645 23.4403 32.1009L26.5989 39.1478C26.6424 39.2448 26.7126 39.3274 26.8012 39.3861C26.8898 39.4447 26.9933 39.477 27.0996 39.479H27.1105C27.215 39.4791 27.3174 39.4499 27.4062 39.3948C27.4949 39.3396 27.5665 39.2607 27.6127 39.167L29.3424 35.6737L33.1022 36.7077C33.2046 36.7357 33.3129 36.7341 33.4144 36.7031C33.5159 36.672 33.6065 36.6128 33.6756 36.5322C33.7448 36.4517 33.7897 36.3532 33.805 36.2482C33.8204 36.1431 33.8056 36.0359 33.7624 35.9389L30.1137 27.803C30.2912 27.771 30.4718 27.7408 30.6512 27.7117C31.7707 27.5294 32.9286 27.3411 33.5609 26.4721C34.1865 25.6124 34.011 24.4596 33.8412 23.3449C33.7272 22.5966 33.6093 21.8231 33.7803 21.2949C33.9395 20.8042 34.4738 20.2673 34.9908 19.7487ZM13.8627 37.6045L12.4555 34.7621C12.3979 34.6454 12.3014 34.5524 12.1826 34.4991C12.0638 34.4459 11.9302 34.4357 11.8047 34.4703L8.74567 35.3114L11.9789 28.1012C12.0895 28.1478 12.1948 28.206 12.2931 28.2748C12.7227 28.5874 13.0734 29.2713 13.4123 29.9327C13.9338 30.9497 14.4729 32.0013 15.5091 32.3377C15.7258 32.4067 15.9524 32.4398 16.1798 32.4353L13.8627 37.6045ZM32.2528 35.3114L29.1938 34.4703C29.0683 34.4356 28.9346 34.4457 28.8158 34.499C28.697 34.5522 28.6005 34.6453 28.5429 34.7621L27.1358 37.6045L24.819 32.4373H24.842C25.0617 32.4382 25.2802 32.4044 25.4894 32.337C26.5256 32.0004 27.0647 30.9491 27.5861 29.9321C27.925 29.2707 28.2755 28.5868 28.705 28.2742C28.8034 28.2054 28.9089 28.1472 29.0195 28.1006L32.2528 35.3114ZM32.714 20.9493C32.461 21.7286 32.599 22.636 32.7329 23.5118C32.8687 24.4026 33.009 25.3235 32.6545 25.8106C32.2935 26.3065 31.3668 26.4577 30.4709 26.6034C29.6003 26.7453 28.6999 26.8917 28.0455 27.368C27.3997 27.8379 26.9884 28.6425 26.5884 29.4212C26.172 30.2354 25.7392 31.0775 25.1431 31.271C24.5867 31.4517 23.7658 31.0381 22.9698 30.639C22.1671 30.2354 21.3362 29.8184 20.4992 29.8184C19.6622 29.8184 18.8314 30.2348 18.0287 30.639C17.232 31.0381 16.4104 31.452 15.8547 31.2713C15.2586 31.0791 14.8268 30.2358 14.4094 29.4215C14.0107 28.6428 13.5981 27.8382 12.9523 27.3683C12.2976 26.892 11.3972 26.7453 10.5266 26.6034C9.62974 26.4577 8.70435 26.3068 8.34336 25.8106C7.98877 25.3238 8.12907 24.4013 8.26488 23.5118C8.39878 22.6347 8.53683 21.7276 8.28378 20.9493C8.04163 20.2039 7.41125 19.5719 6.80106 18.9585C6.14922 18.3028 5.47656 17.6257 5.47656 16.979C5.47656 16.3323 6.15114 15.6551 6.8033 15.0007C7.41189 14.3883 8.04355 13.7554 8.28571 13.01C8.53875 12.2307 8.4007 11.3236 8.26681 10.4475C8.13099 9.55703 7.9907 8.63581 8.34528 8.14894C8.70628 7.65245 9.63294 7.50191 10.5289 7.35584C11.3995 7.21427 12.2999 7.06756 12.9543 6.59126C13.6 6.12136 14.0113 5.31641 14.4114 4.53806C14.8278 3.72382 15.2605 2.88172 15.8566 2.68825C16.4127 2.50727 17.234 2.9208 18.0299 3.32023C18.8326 3.72382 19.6635 4.14087 20.5005 4.14087C21.3375 4.14087 22.1684 3.72446 22.9711 3.32023C23.7661 2.9208 24.589 2.50759 25.1444 2.68825C25.7405 2.88044 26.1723 3.72382 26.5897 4.53806C26.9884 5.31641 27.401 6.12136 28.0468 6.59126C28.7015 7.06756 29.6016 7.21427 30.4722 7.35584C31.369 7.50191 32.2947 7.65277 32.6557 8.14894C33.0103 8.63613 32.87 9.55831 32.7342 10.4478C32.6003 11.3248 32.4623 12.232 32.7153 13.0103C32.9575 13.7557 33.5878 14.3877 34.1977 15.0011C34.8499 15.6555 35.5245 16.3326 35.5245 16.9793C35.5245 17.626 34.8499 18.3032 34.198 18.9579C33.5866 19.571 32.9562 20.2029 32.714 20.9483V20.9493Z" fill="#A1A1A1"/>
<path d="M20.4983 5.90039C18.3072 5.90033 16.1653 6.55 14.3435 7.76724C12.5217 8.98448 11.1018 10.7146 10.2633 12.7389C9.42474 14.7631 9.20533 16.9906 9.63277 19.1395C10.0602 21.2885 11.1153 23.2624 12.6646 24.8117C14.2139 26.361 16.1878 27.4161 18.3368 27.8436C20.4858 28.271 22.7132 28.0516 24.7374 27.2131C26.7617 26.3746 28.4918 24.9546 29.7091 23.1328C30.9263 21.311 31.576 19.1691 31.5759 16.9781C31.5726 14.0411 30.4045 11.2254 28.3277 9.14862C26.251 7.07187 23.4352 5.9037 20.4983 5.90039ZM20.4983 26.935C18.5289 26.935 16.6039 26.3511 14.9664 25.2571C13.329 24.1631 12.0527 22.608 11.299 20.7886C10.5454 18.9693 10.3481 16.9672 10.7323 15.0358C11.1165 13.1043 12.0647 11.3301 13.4572 9.93759C14.8497 8.54506 16.6239 7.59672 18.5553 7.21251C20.4868 6.82829 22.4888 7.02545 24.3082 7.77906C26.1276 8.53266 27.6827 9.80886 28.7768 11.4463C29.8709 13.0837 30.4548 15.0088 30.4548 16.9781C30.4519 19.6178 29.4019 22.1486 27.5354 24.0153C25.6688 25.8819 23.138 26.9319 20.4983 26.935Z" fill="#7C275E"/>
<path d="M26.6031 15.072L22.7331 14.5099L21.0034 11.0031C20.9572 10.9093 20.8856 10.8302 20.7968 10.775C20.708 10.7197 20.6054 10.6904 20.5008 10.6904C20.3962 10.6904 20.2937 10.7197 20.2049 10.775C20.1161 10.8302 20.0445 10.9093 19.9983 11.0031L18.266 14.5099L14.396 15.072C14.2925 15.0871 14.1952 15.1308 14.1153 15.1982C14.0353 15.2656 13.9758 15.3541 13.9435 15.4535C13.9111 15.553 13.9073 15.6596 13.9323 15.7611C13.9574 15.8627 14.0104 15.9552 14.0853 16.0282L16.8858 18.7579L16.2247 22.6138C16.2071 22.7169 16.2186 22.8228 16.258 22.9196C16.2975 23.0165 16.3632 23.1003 16.4478 23.1618C16.5324 23.2232 16.6325 23.2598 16.7368 23.2673C16.8411 23.2749 16.9454 23.2531 17.0379 23.2045L20.4996 21.3835L23.9612 23.2032C24.0536 23.2517 24.1578 23.2734 24.2619 23.2659C24.3661 23.2584 24.4661 23.222 24.5506 23.1607C24.6352 23.0995 24.7009 23.0158 24.7405 22.9192C24.78 22.8225 24.7918 22.7168 24.7744 22.6138L24.1133 18.7579L26.9138 16.0282C26.9887 15.9552 27.0417 15.8627 27.0668 15.7611C27.0918 15.6596 27.088 15.553 27.0557 15.4535C27.0233 15.3541 26.9638 15.2656 26.8838 15.1982C26.8039 15.1308 26.7066 15.0871 26.6031 15.072ZM23.1197 18.1615C23.0549 18.225 23.0064 18.3034 22.9785 18.3898C22.9506 18.4762 22.9441 18.5681 22.9596 18.6576L23.4785 21.6833L20.7613 20.2547C20.6808 20.2124 20.5914 20.1903 20.5005 20.1903C20.4097 20.1903 20.3202 20.2124 20.2398 20.2547L17.5207 21.6827L18.0396 18.657C18.055 18.5675 18.0485 18.4756 18.0206 18.3892C17.9927 18.3027 17.9442 18.2244 17.8794 18.1608L15.6811 16.0179L18.7189 15.5765C18.8089 15.5634 18.8943 15.5287 18.9678 15.4753C19.0414 15.4219 19.1008 15.3515 19.1411 15.27L20.4996 12.5172L21.858 15.27C21.8983 15.3515 21.9578 15.4219 22.0313 15.4753C22.1048 15.5287 22.1902 15.5634 22.2802 15.5765L25.318 16.0179L23.1197 18.1615Z" fill="#7C275E"/>
</svg>
